<?xml version="1.0" encoding="utf-8"?>
<!-- Generator: Adobe Illustrator 25.3.1, SVG Export Plug-In . SVG Version: 6.00 Build 0)  -->
<svg version="1.1" id="Layer_1" xmlns="http://www.w3.org/2000/svg" xmlns:xlink="http://www.w3.org/1999/xlink" x="0px" y="0px"
	 viewBox="0 0 432 432" style="enable-background:new 0 0 432 432;" xml:space="preserve">
<style type="text/css">
	.st0{fill:#99DAEF;}
	.st1{fill:#F69799;}
</style>
<g>
	<g>
		<path class="st0" d="M138.35,223.5c1.35,1.8,1.8,4.06,1.35,6.32c-7.51,29.43-19.54,54.51-42.2,72.22
			c10.61,10.61,22.11,19.63,34.75,26.86c3.39,2.03,5.19,4.97,4.97,8.13c-0.1,6.68-8.05,9.63-14.44,9.48
			c-13.54-0.83-23.68-11.59-34.3-18.73c-0.08,9.22,5.33,19.75,0.91,27.98c-8.8,7.83-26.35,5.01-28.89-5.64
			c-6.09-44.91-7.9-90.72-5.42-136.31c0.45-5.64,6.09-9.48,14.67-9.48c7.98,0.18,16.05,3.04,16.02,10.83
			c-1.13,20.99-1.35,41.98-0.68,62.96c8.35-9.93,17.83-25.73,24.15-51.23C111.27,217.04,131.94,215.74,138.35,223.5z"/>
		<path class="st0" d="M178.74,358c-0.99,15.41-30.98,12.48-30.69,0.45c-1.35-49.65-1.58-100.88-1.13-152.56
			c0.28-10.5,19.42-13.83,28.21-5.87C181.72,251.13,174.99,307.18,178.74,358z"/>
		<path class="st0" d="M283.22,204.32c3.49,47.43-3.46,98.04,1.59,145.79c0.95,12.67-26.85,12.87-29.79,4.06
			c-14.54-26.23-27.43-52.35-38.59-79.21c-0.45,26.63,0,53.26,1.58,78.76c1.28,7.91-11.15,11.16-15.12,10.61
			c-9.03,0-15.12-4.06-15.57-9.93c-2.71-48.07-2.26-96.59,1.36-144.43c0.45-6.09,5.64-9.93,13.77-9.93
			c20.97-0.33,25.12,26.23,32.05,40.85c5.28,13.88,11.5,28.64,17.83,43.11c0-24.6,0.9-49.42,2.48-74.02
			C255.25,199.44,274.48,196.52,283.22,204.32z"/>
		<path class="st0" d="M378,259.16c-2.19,34.61-1.61,95.33-35.88,103.81c-27.48,7.15-42.58-21.2-46.04-43.56
			c-7.23-35.11-9.53-125.1,45.13-117.8c10.49,2.36,29.62,16.97,24.83,30.02c-6.21,8.73-27.83,8-31.37-6.32
			c-15.58,33.84-16.9,80.29-0.23,113.97c8.52-20.93,11.29-44.39,12.64-69.06c-6.06,1.79-22.99-2.27-17.83-13.32
			C334.39,247.26,378.48,243.48,378,259.16z"/>
	</g>
</g>
<g>
	<g>
		<path class="st1" d="M61.9,187.66c-68.41,1.4-35.69-139.37,23.63-98.63l1.28-8.09L103,83.51l-6.68,42.51l-16.18-2.57l0.13-0.26
			c-6.92-23.63-25.9-8-23.89,10.79c0.41,8.72,1.46,23.93,11.68,25.43c7.78,0.6,10.91-6.49,10.79-12.46l28.77,2.44
			C103.5,170.68,85.45,188.07,61.9,187.66z"/>
		<path class="st1" d="M146.92,191.13l-46.1-2.57l0.9-16.31l7.19,0.39l28.51-80.65h-3.47V75.68h36.73v16.31h-2.44l26.32,76.67
			l6.42-0.64l1.8,16.31l-45.97,5.01l-1.67-16.31l3.08-0.26l-1.41-9.25l-11.94,1.03l-1.41,10.02l4.37,0.26L146.92,191.13z
			 M147.43,139.76l8.86-0.64l-2.44-14.25h-3.47L147.43,139.76z"/>
		<path class="st1" d="M209.71,192.8l-1.03-16.31l5.65-0.39l-3.21-80.26l-3.47,0.26l-1.02-16.31l49.57-3.08l1.03,16.31l-1.41,0.13
			l8.6,24.53l7.96-30.05l-2.18-0.13l1.03-16.31l49.57,3.21l-1.02,16.44l-2.96-0.26l-5.39,84.5h5.14v16.31h-44.69v-16.31h5.91
			l-1.41-29.15l-10.4,25.81l-4.49,0.51l-11.43-27.22l-2.18,29.02l5.52-0.38l1.03,16.44L209.71,192.8z"/>
		<path class="st1" d="M374.34,192.03h-49.7v-16.44h6.42l4.24-79.88h-8.09V79.27c23.14,0.75,52.77-4.19,72.94,7.45
			c21.76,10.5,16.11,38.5-1.54,49.7c-8.94,6.54-19.46,10.21-29.28,12.46v26.71h5.01V192.03z M367.15,123.71
			c17.23-2.11,20.31-19.11,0-17.34V123.71z"/>
	</g>
</g>
</svg>
